# xmcd
#
# Track frame offsets: 
#        180
#        9537
#        23788
#        36962
#        49292
#        59522
#        77484
#        92797
#        106218
#        121098
#        135770
#        145904
#
# Disc length: 2151 seconds
#
# Revision: 2
# Processed by: cddbd v1.5.2PL0 Copyright (c) Steve Scherf et al.
# Submitted via: ExactAudioCopy v0.99pb3
#
DISCID=9408650c
DTITLE=Various Artist - Memorias Sertanejas Vol 22
DYEAR=1996
DGENRE=
TTITLE0=Abel e Caim - Pinha do Pinheiro
TTITLE1=Carreiro e Carreirinho - Chave do Apartamento
TTITLE2=Tonico e Tinoco - Sereno da Madrugada
TTITLE3=Milionario e Jose Rico - Vinte Anos
TTITLE4=Lourenço e Lourival - Trem das Seis
TTITLE5=Tiao Carreiro e Carreirinho - Boiadeiro de Palavra
TTITLE6=Cascatinha e Inhana - Anahi
TTITLE7=Luizinho, Limeira e Zezinha - Coracao de Luto
TTITLE8=Pena Branca e Xavantinho - Cuitelinho
TTITLE9=Pedro Bento e Ze da Estrada - Cavalo Preto Valente
TTITLE10=Palmeira e Bia  - Decisao Cruel
TTITLE11=Sulino e Marrueiro - Quando a Lua Vem Surgindo
EXTD=
EXTT0=
EXTT1=
EXTT2=
EXTT3=
EXTT4=
EXTT5=
EXTT6=
EXTT7=
EXTT8=
EXTT9=
EXTT10=
EXTT11=
PLAYORDER=
